<svg xmlns="http://www.w3.org/2000/svg" version="1.1" xmlns:xlink="http://www.w3.org/1999/xlink" xmlns:svgjs="http://svgjs.dev/svgjs" width="1000" height="1000" viewBox="0 0 1000 1000"><rect width="1000" height="1000" fill="#fce44d"></rect><g transform="matrix(0.7,0,0,0.7,149.57576492687002,439.7789095135888)"><svg viewBox="0 0 396 68" data-background-color="#fce44d" preserveAspectRatio="xMidYMid meet" height="171" width="1000" xmlns="http://www.w3.org/2000/svg" xmlns:xlink="http://www.w3.org/1999/xlink"><g id="tight-bounds" transform="matrix(1,0,0,1,0.23999612780517054,0.21081163806150016)"><svg viewBox="0 0 395.52 67.57837658065975" height="67.57837658065975" width="395.52"><g><svg viewBox="0 0 491.18969335171164 83.92445911675959" height="67.57837658065975" width="395.52"><g><rect width="3.6182814036638926" height="72.87217868314869" x="82.57947110076006" y="5.526140216805452" fill="#374151" opacity="1" stroke-width="0" stroke="transparent" fill-opacity="1" class="rect-o-0" data-fill-palette-color="primary" rx="1%" id="o-0" data-palette-color="#374151"></rect></g><g transform="matrix(1,0,0,1,95.66969335171163,11.598821773734507)"><svg viewBox="0 0 395.52000000000004 60.72681556929058" height="60.72681556929058" width="395.52000000000004"><g id="textblocktransform"><svg viewBox="0 0 395.52000000000004 60.72681556929058" height="60.72681556929058" width="395.52000000000004" id="textblock"><g><svg viewBox="0 0 395.52000000000004 40.12242179335331" height="40.12242179335331" width="395.52000000000004"><g transform="matrix(1,0,0,1,0,0)"><svg width="395.52000000000004" viewBox="7.079999923706055 -35.060001373291016 350.3900146484375 35.55000305175781" height="40.12242179335331" data-palette-color="#374151"><path d="M7.08 0L7.08-34.69 12.33-34.69 31.23-5.66 31.23-34.69 35.38-34.69 35.38 0 30.13 0 11.23-29.08 11.23 0 7.08 0ZM67.92 0L47.58 0 47.58-34.69 67.92-34.69 67.92-31.03 51.73-31.03 51.73-19.7 66.57-19.7 66.57-16.04 51.73-16.04 51.73-3.66 67.92-3.66 67.92 0ZM78.9-11.89L78.9-34.69 83.05-34.69 83.05-12.21Q83.05-10.13 83.41-8.64 83.76-7.15 84.91-5.86L84.91-5.86Q87.35-3.1 92.11-3.1L92.11-3.1Q95.55-3.1 97.86-4.6 100.17-6.1 100.85-8.84L100.85-8.84Q101.17-10.13 101.17-12.21L101.17-12.21 101.17-34.69 105.27-34.69Q105.27-26.86 105.28-21.88 105.29-16.89 105.29-15.49 105.29-14.09 105.31-13.24 105.32-12.4 105.32-11.84L105.32-11.84Q105.32-10.72 105.27-9.88 105.22-9.03 104.94-7.67 104.66-6.3 104.17-5.29 103.68-4.27 102.69-3.13 101.7-1.98 100.35-1.23 98.99-0.49 96.88 0 94.77 0.49 92.11 0.49L92.11 0.49Q89.25 0.49 86.98-0.11 84.71-0.71 83.42-1.54 82.12-2.37 81.18-3.54 80.24-4.71 79.89-5.55 79.54-6.4 79.32-7.32L79.32-7.32Q78.9-8.94 78.9-11.89L78.9-11.89ZM140.42-25.17L140.42-25.17Q140.42-23.44 140.01-21.88 139.59-20.31 138.71-18.9 137.83-17.48 136.28-16.44 134.73-15.41 132.66-14.92L132.66-14.92 142.45 0 137.81 0 128.41-14.45 121.7-14.45 121.7 0 117.52 0 117.52-34.69 130.27-34.69Q131.14-34.69 131.85-34.64 132.56-34.59 133.67-34.39 134.78-34.18 135.64-33.83 136.49-33.47 137.43-32.75 138.37-32.03 138.99-31.05 139.62-30.08 140.02-28.56 140.42-27.05 140.42-25.17ZM121.7-31.05L121.7-18.12 127.68-18.12Q128.92-18.12 129.88-18.2 130.83-18.29 132.11-18.66 133.39-19.04 134.23-19.71 135.08-20.39 135.67-21.67 136.27-22.95 136.27-24.71L136.27-24.71Q136.27-25.95 135.95-26.95 135.64-27.95 135.15-28.6 134.66-29.25 133.95-29.72 133.24-30.2 132.59-30.44 131.93-30.69 131.12-30.83 130.31-30.98 129.79-31.02 129.26-31.05 128.68-31.05L128.68-31.05 121.7-31.05ZM167.13-35.06L167.13-35.06Q170.57-35.06 173.56-33.85 176.55-32.64 178.74-30.44 180.92-28.25 182.17-24.96 183.41-21.68 183.41-17.75L183.41-17.75Q183.41-12.43 181.3-8.29 179.19-4.15 175.44-1.89 171.69 0.37 166.96 0.37L166.96 0.37Q163.83 0.37 160.98-0.74 158.12-1.86 155.82-3.98 153.53-6.1 152.16-9.53 150.8-12.96 150.8-17.26L150.8-17.26Q150.8-21.29 152.04-24.63 153.29-27.98 155.46-30.26 157.63-32.54 160.63-33.8 163.64-35.06 167.13-35.06ZM166.91-31.42L166.91-31.42Q164.69-31.42 162.64-30.59 160.59-29.76 158.86-28.16 157.14-26.56 156.11-23.86 155.07-21.17 155.07-17.77L155.07-17.77Q155.07-14.53 156.02-11.78 156.97-9.03 158.61-7.18 160.24-5.32 162.48-4.3 164.71-3.27 167.28-3.27L167.28-3.27Q169.01-3.27 170.68-3.78 172.35-4.3 173.89-5.41 175.43-6.52 176.59-8.13 177.75-9.74 178.44-12.11 179.14-14.48 179.14-17.31L179.14-17.31Q179.14-20.19 178.41-22.58 177.68-24.98 176.47-26.59 175.26-28.2 173.66-29.31 172.06-30.42 170.36-30.92 168.67-31.42 166.91-31.42ZM206.75-35.01L206.75-35.01Q210.75-35.01 215.37-33.62L215.37-33.62 214.03-29.83Q209.63-31.1 206.41-31.1L206.41-31.1Q202.8-31.1 200.29-29.58 197.79-28.05 197.79-25.63L197.79-25.63Q197.79-24.29 198.6-23.24 199.4-22.19 200.72-21.53 202.04-20.87 203.72-20.23 205.41-19.58 207.15-19.04 208.9-18.51 210.58-17.68 212.27-16.85 213.59-15.86 214.9-14.87 215.71-13.28 216.52-11.69 216.52-9.69L216.52-9.69Q216.52-8.3 216.08-6.92 215.64-5.54 214.61-4.19 213.59-2.83 212.07-1.81 210.56-0.78 208.25-0.15 205.94 0.49 203.11 0.49 200.28 0.49 197.9-0.1 195.52-0.68 192.57-1.86L192.57-1.86 193.98-5.88Q200.09-3.61 203.63-3.61L203.63-3.61Q207.34-3.61 209.67-5.1 212-6.59 212-9.08L212-9.08Q212-10.74 210.96-11.95 209.92-13.16 208.28-13.9 206.63-14.65 204.63-15.3 202.62-15.94 200.63-16.69 198.64-17.43 197-18.41 195.35-19.38 194.31-21.04 193.27-22.71 193.27-24.95L193.27-24.95Q193.27-26.95 194.24-28.78 195.2-30.62 196.91-31.99 198.62-33.37 201.18-34.19 203.75-35.01 206.75-35.01ZM227.01 0L227.01-34.69 231.16-34.69 231.16 0 227.01 0ZM231.75-17.8L246.44-34.69 251.65-34.69 236.97-18.14 252.57 0 247.23 0 231.75-17.8ZM262.34 0L262.34-34.69 266.49-34.69 266.49 0 262.34 0ZM279.42 0L279.42-34.69 283.57-34.69 283.57-3.64 299.15-3.64 299.15 0 279.42 0ZM307.08 0L307.08-34.69 311.23-34.69 311.23-3.64 326.81-3.64 326.81 0 307.08 0ZM347.7-35.01L347.7-35.01Q351.71-35.01 356.32-33.62L356.32-33.62 354.98-29.83Q350.59-31.1 347.36-31.1L347.36-31.1Q343.75-31.1 341.25-29.58 338.74-28.05 338.74-25.63L338.74-25.63Q338.74-24.29 339.55-23.24 340.36-22.19 341.67-21.53 342.99-20.87 344.68-20.23 346.36-19.58 348.11-19.04 349.85-18.51 351.54-17.68 353.22-16.85 354.54-15.86 355.86-14.87 356.66-13.28 357.47-11.69 357.47-9.69L357.47-9.69Q357.47-8.3 357.03-6.92 356.59-5.54 355.57-4.19 354.54-2.83 353.03-1.81 351.51-0.78 349.21-0.15 346.9 0.49 344.07 0.49 341.23 0.49 338.85-0.1 336.47-0.68 333.52-1.86L333.52-1.86 334.94-5.88Q341.04-3.61 344.58-3.61L344.58-3.61Q348.29-3.61 350.62-5.1 352.95-6.59 352.95-9.08L352.95-9.08Q352.95-10.74 351.92-11.95 350.88-13.16 349.23-13.9 347.58-14.65 345.58-15.3 343.58-15.94 341.59-16.69 339.6-17.43 337.95-18.41 336.3-19.38 335.27-21.04 334.23-22.71 334.23-24.95L334.23-24.95Q334.23-26.95 335.19-28.78 336.16-30.62 337.87-31.99 339.57-33.37 342.14-34.19 344.7-35.01 347.7-35.01Z" opacity="1" transform="matrix(1,0,0,1,0,0)" fill="#374151" class="wordmark-text-0" data-fill-palette-color="primary" id="text-0"></path></svg></g></svg></g><g transform="matrix(1,0,0,1,163.31020800000002,49.59436264064099)"><svg viewBox="0 0 232.20979200000002 11.132452928649593" height="11.132452928649593" width="232.20979200000002"><g transform="matrix(1,0,0,1,0,0)"><svg width="232.20979200000002" viewBox="1.0024096965789795 -39.849998474121094 1079.3575439453125 51.75" height="11.132452928649593" data-palette-color="#374151"><path d="M13.35 0L13.35 0Q12.65 0 12.13-0.45 11.6-0.9 11.4-1.6L11.4-1.6 1.15-36.25Q0.8-37.45 1.28-38.25 1.75-39.05 2.8-39.05L2.8-39.05Q3.4-39.05 3.93-38.73 4.45-38.4 4.7-37.55L4.7-37.55 13.95-5.35 12.8-5.35 21.55-36.7Q21.7-37.25 22.23-37.6 22.75-37.95 23.4-37.95L23.4-37.95Q24-37.95 24.55-37.63 25.1-37.3 25.25-36.65L25.25-36.65 34.05-5.35 32.9-5.35 42.2-37.75Q42.55-39.05 44.1-39.05L44.1-39.05Q45.15-39.05 45.55-38.23 45.95-37.4 45.65-36.25L45.65-36.25 35.45-1.65Q35.2-0.85 34.68-0.43 34.15 0 33.45 0L33.45 0Q32.75 0 32.23-0.45 31.7-0.9 31.5-1.6L31.5-1.6 22.8-33.35 24-33.35 15.35-1.65Q15.1-0.9 14.58-0.45 14.05 0 13.35 0ZM74.85 0L74.85 0Q74 0 73.45-0.55 72.9-1.1 72.9-1.9L72.9-1.9 72.9-14.9Q72.9-18 71.72-20 70.55-22 68.52-23 66.5-24 63.95-24L63.95-24Q61.5-24 59.52-23.05 57.55-22.1 56.4-20.45 55.25-18.8 55.25-16.7L55.25-16.7 52.5-16.7Q52.6-19.85 54.2-22.33 55.8-24.8 58.45-26.23 61.1-27.65 64.35-27.65L64.35-27.65Q67.9-27.65 70.7-26.18 73.5-24.7 75.12-21.85 76.75-19 76.75-14.9L76.75-14.9 76.75-1.9Q76.75-1.1 76.2-0.55 75.65 0 74.85 0ZM53.35 0L53.35 0Q52.45 0 51.92-0.53 51.4-1.05 51.4-1.9L51.4-1.9 51.4-25.4Q51.4-26.3 51.92-26.83 52.45-27.35 53.35-27.35L53.35-27.35Q54.2-27.35 54.72-26.83 55.25-26.3 55.25-25.4L55.25-25.4 55.25-1.9Q55.25-1.05 54.72-0.53 54.2 0 53.35 0ZM53.35-11.15L53.35-11.15Q52.45-11.15 51.92-11.7 51.4-12.25 51.4-13.1L51.4-13.1 51.4-37.1Q51.4-38 51.92-38.53 52.45-39.05 53.35-39.05L53.35-39.05Q54.2-39.05 54.72-38.53 55.25-38 55.25-37.1L55.25-37.1 55.25-13.1Q55.25-12.25 54.72-11.7 54.2-11.15 53.35-11.15ZM89.95 11.9L89.95 11.9Q89.55 11.9 89.05 11.7L89.05 11.7Q87.34 10.95 88.09 9.3L88.09 9.3 104.25-26.3Q105-27.9 106.65-27.2L106.65-27.2Q108.34-26.5 107.59-24.85L107.59-24.85 91.4 10.75Q90.9 11.9 89.95 11.9ZM95.5-0.85L95.5-0.85Q94.75-0.5 94.09-0.73 93.45-0.95 93.05-1.7L93.05-1.7 81.9-24.8Q81.55-25.55 81.8-26.2 82.05-26.85 82.8-27.2L82.8-27.2Q83.55-27.55 84.2-27.33 84.84-27.1 85.2-26.35L85.2-26.35 96.15-3.25Q96.55-2.5 96.4-1.85 96.25-1.2 95.5-0.85ZM133.84 0L133.19 0Q131.19 0 129.62-1.1 128.04-2.2 127.17-4.15 126.29-6.1 126.29-8.65L126.29-8.65 126.29-37.15Q126.29-38 126.82-38.53 127.34-39.05 128.19-39.05L128.19-39.05Q129.04-39.05 129.57-38.53 130.09-38 130.09-37.15L130.09-37.15 130.09-8.65Q130.09-6.5 130.97-5.15 131.84-3.8 133.19-3.8L133.19-3.8 134.44-3.8Q135.19-3.8 135.64-3.28 136.09-2.75 136.09-1.9L136.09-1.9Q136.09-1.05 135.47-0.53 134.84 0 133.84 0L133.84 0ZM152.29 0.25L152.29 0.25Q148.24 0.25 145.11-1.53 141.99-3.3 140.21-6.45 138.44-9.6 138.44-13.65L138.44-13.65Q138.44-17.75 140.11-20.88 141.79-24 144.74-25.8 147.69-27.6 151.54-27.6L151.54-27.6Q155.34-27.6 158.16-25.88 160.99-24.15 162.54-21.1 164.09-18.05 164.09-14.15L164.09-14.15Q164.09-13.35 163.59-12.88 163.09-12.4 162.29-12.4L162.29-12.4 141.04-12.4 141.04-15.6 162.69-15.6 160.54-14.05Q160.59-16.95 159.49-19.25 158.39-21.55 156.36-22.85 154.34-24.15 151.54-24.15L151.54-24.15Q148.69-24.15 146.54-22.8 144.39-21.45 143.21-19.07 142.04-16.7 142.04-13.65L142.04-13.65Q142.04-10.6 143.36-8.25 144.69-5.9 146.99-4.55 149.29-3.2 152.29-3.2L152.29-3.2Q154.09-3.2 155.91-3.83 157.74-4.45 158.84-5.4L158.84-5.4Q159.39-5.85 160.09-5.88 160.79-5.9 161.29-5.5L161.29-5.5Q161.94-4.9 161.96-4.2 161.99-3.5 161.39-3L161.39-3Q159.74-1.6 157.19-0.68 154.64 0.25 152.29 0.25ZM181.64 0.25L181.64 0.25Q177.79 0.25 174.74-1.58 171.69-3.4 169.91-6.55 168.14-9.7 168.14-13.65L168.14-13.65Q168.14-17.65 169.96-20.8 171.79-23.95 174.94-25.78 178.09-27.6 182.04-27.6L182.04-27.6Q185.99-27.6 189.11-25.78 192.24-23.95 194.06-20.8 195.89-17.65 195.94-13.65L195.94-13.65 194.39-12.45Q194.39-8.85 192.71-5.98 191.04-3.1 188.16-1.43 185.29 0.25 181.64 0.25ZM182.04-3.25L182.04-3.25Q184.94-3.25 187.21-4.6 189.49-5.95 190.81-8.33 192.14-10.7 192.14-13.65L192.14-13.65Q192.14-16.65 190.81-19 189.49-21.35 187.21-22.73 184.94-24.1 182.04-24.1L182.04-24.1Q179.19-24.1 176.89-22.73 174.59-21.35 173.24-19 171.89-16.65 171.89-13.65L171.89-13.65Q171.89-10.7 173.24-8.33 174.59-5.95 176.89-4.6 179.19-3.25 182.04-3.25ZM193.99 0L193.99 0Q193.14 0 192.59-0.53 192.04-1.05 192.04-1.9L192.04-1.9 192.04-10.45 192.99-14.4 195.94-13.65 195.94-1.9Q195.94-1.05 195.39-0.53 194.84 0 193.99 0ZM207.23-16.85L205.03-16.85Q205.18-19.95 206.66-22.4 208.13-24.85 210.51-26.25 212.88-27.65 215.78-27.65L215.78-27.65Q218.08-27.65 219.33-27 220.58-26.35 220.28-25.1L220.28-25.1Q220.08-24.35 219.61-24.1 219.13-23.85 218.46-23.9 217.78-23.95 216.93-24L216.93-24Q214.13-24.25 211.96-23.43 209.78-22.6 208.51-20.9 207.23-19.2 207.23-16.85L207.23-16.85ZM205.33 0L205.33 0Q204.43 0 203.93-0.5 203.43-1 203.43-1.9L203.43-1.9 203.43-25.45Q203.43-26.35 203.93-26.85 204.43-27.35 205.33-27.35L205.33-27.35Q206.23-27.35 206.73-26.85 207.23-26.35 207.23-25.45L207.23-25.45 207.23-1.9Q207.23-1 206.73-0.5 206.23 0 205.33 0ZM249.78 0L249.78 0Q248.93 0 248.38-0.55 247.83-1.1 247.83-1.9L247.83-1.9 247.83-14.9Q247.83-18 246.66-20 245.48-22 243.46-23 241.43-24 238.88-24L238.88-24Q236.43-24 234.46-23.05 232.48-22.1 231.33-20.45 230.18-18.8 230.18-16.7L230.18-16.7 227.43-16.7Q227.53-19.85 229.13-22.33 230.73-24.8 233.38-26.23 236.03-27.65 239.28-27.65L239.28-27.65Q242.83-27.65 245.63-26.18 248.43-24.7 250.06-21.85 251.68-19 251.68-14.9L251.68-14.9 251.68-1.9Q251.68-1.1 251.13-0.55 250.58 0 249.78 0ZM228.28 0L228.28 0Q227.38 0 226.86-0.53 226.33-1.05 226.33-1.9L226.33-1.9 226.33-25.4Q226.33-26.3 226.86-26.83 227.38-27.35 228.28-27.35L228.28-27.35Q229.13-27.35 229.66-26.83 230.18-26.3 230.18-25.4L230.18-25.4 230.18-1.9Q230.18-1.05 229.66-0.53 229.13 0 228.28 0ZM281.03 0L281.03 0Q280.38 0 279.88-0.35 279.38-0.7 279.18-1.25L279.18-1.25 271.38-24.65Q271.08-25.9 271.43-26.63 271.78-27.35 272.83-27.35L272.83-27.35Q273.48-27.35 273.98-27 274.48-26.65 274.73-25.9L274.73-25.9 281.68-4.65 280.58-4.65 287.03-25.85Q287.23-26.5 287.7-26.93 288.18-27.35 288.93-27.35L288.93-27.35Q289.68-27.35 290.15-26.95 290.63-26.55 290.83-25.85L290.83-25.85 296.98-5.15 296.13-5.15 302.93-25.9Q303.43-27.35 304.78-27.35L304.78-27.35Q305.88-27.35 306.28-26.53 306.68-25.7 306.28-24.65L306.28-24.65 298.48-1.25Q298.28-0.7 297.8-0.35 297.33 0 296.68 0L296.68 0Q296.03 0 295.5-0.35 294.98-0.7 294.83-1.25L294.83-1.25 288.53-22.15 289.13-22.15 282.83-1.25Q282.63-0.65 282.13-0.33 281.63 0 281.03 0ZM335.27 0L335.27 0Q334.42 0 333.87-0.55 333.32-1.1 333.32-1.9L333.32-1.9 333.32-14.9Q333.32-18 332.15-20 330.97-22 328.95-23 326.92-24 324.37-24L324.37-24Q321.92-24 319.95-23.05 317.97-22.1 316.82-20.45 315.67-18.8 315.67-16.7L315.67-16.7 312.92-16.7Q313.02-19.85 314.62-22.33 316.22-24.8 318.87-26.23 321.52-27.65 324.77-27.65L324.77-27.65Q328.32-27.65 331.12-26.18 333.92-24.7 335.55-21.85 337.17-19 337.17-14.9L337.17-14.9 337.17-1.9Q337.17-1.1 336.62-0.55 336.07 0 335.27 0ZM313.77 0L313.77 0Q312.87 0 312.35-0.53 311.82-1.05 311.82-1.9L311.82-1.9 311.82-25.4Q311.82-26.3 312.35-26.83 312.87-27.35 313.77-27.35L313.77-27.35Q314.62-27.35 315.15-26.83 315.67-26.3 315.67-25.4L315.67-25.4 315.67-1.9Q315.67-1.05 315.15-0.53 314.62 0 313.77 0ZM313.77-11.15L313.77-11.15Q312.87-11.15 312.35-11.7 311.82-12.25 311.82-13.1L311.82-13.1 311.82-37.1Q311.82-38 312.35-38.53 312.87-39.05 313.77-39.05L313.77-39.05Q314.62-39.05 315.15-38.53 315.67-38 315.67-37.1L315.67-37.1 315.67-13.1Q315.67-12.25 315.15-11.7 314.62-11.15 313.77-11.15ZM358.07 0.25L358.07 0.25Q354.02 0.25 350.9-1.53 347.77-3.3 346-6.45 344.22-9.6 344.22-13.65L344.22-13.65Q344.22-17.75 345.9-20.88 347.57-24 350.52-25.8 353.47-27.6 357.32-27.6L357.32-27.6Q361.12-27.6 363.95-25.88 366.77-24.15 368.32-21.1 369.87-18.05 369.87-14.15L369.87-14.15Q369.87-13.35 369.37-12.88 368.87-12.4 368.07-12.4L368.07-12.4 346.82-12.4 346.82-15.6 368.47-15.6 366.32-14.05Q366.37-16.95 365.27-19.25 364.17-21.55 362.15-22.85 360.12-24.15 357.32-24.15L357.32-24.15Q354.47-24.15 352.32-22.8 350.17-21.45 349-19.07 347.82-16.7 347.82-13.65L347.82-13.65Q347.82-10.6 349.15-8.25 350.47-5.9 352.77-4.55 355.07-3.2 358.07-3.2L358.07-3.2Q359.87-3.2 361.7-3.83 363.52-4.45 364.62-5.4L364.62-5.4Q365.17-5.85 365.87-5.88 366.57-5.9 367.07-5.5L367.07-5.5Q367.72-4.9 367.75-4.2 367.77-3.5 367.17-3L367.17-3Q365.52-1.6 362.97-0.68 360.42 0.25 358.07 0.25ZM399.82 0L399.82 0Q398.97 0 398.42-0.55 397.87-1.1 397.87-1.9L397.87-1.9 397.87-14.9Q397.87-18 396.69-20 395.52-22 393.49-23 391.47-24 388.92-24L388.92-24Q386.47-24 384.49-23.05 382.52-22.1 381.37-20.45 380.22-18.8 380.22-16.7L380.22-16.7 377.47-16.7Q377.57-19.85 379.17-22.33 380.77-24.8 383.42-26.23 386.07-27.65 389.32-27.65L389.32-27.65Q392.87-27.65 395.67-26.18 398.47-24.7 400.09-21.85 401.72-19 401.72-14.9L401.72-14.9 401.72-1.9Q401.72-1.1 401.17-0.55 400.62 0 399.82 0ZM378.32 0L378.32 0Q377.42 0 376.89-0.53 376.37-1.05 376.37-1.9L376.37-1.9 376.37-25.4Q376.37-26.3 376.89-26.83 377.42-27.35 378.32-27.35L378.32-27.35Q379.17-27.35 379.69-26.83 380.22-26.3 380.22-25.4L380.22-25.4 380.22-1.9Q380.22-1.05 379.69-0.53 379.17 0 378.32 0ZM429.56 11.9L429.56 11.9Q429.16 11.9 428.66 11.7L428.66 11.7Q426.96 10.95 427.71 9.3L427.71 9.3 443.86-26.3Q444.61-27.9 446.26-27.2L446.26-27.2Q447.96-26.5 447.21-24.85L447.21-24.85 431.01 10.75Q430.51 11.9 429.56 11.9ZM435.11-0.85L435.11-0.85Q434.36-0.5 433.71-0.73 433.06-0.95 432.66-1.7L432.66-1.7 421.51-24.8Q421.16-25.55 421.41-26.2 421.66-26.85 422.41-27.2L422.41-27.2Q423.16-27.55 423.81-27.33 424.46-27.1 424.81-26.35L424.81-26.35 435.76-3.25Q436.16-2.5 436.01-1.85 435.86-1.2 435.11-0.85ZM463.71 0.25L463.71 0.25Q459.71 0.25 456.56-1.55 453.41-3.35 451.61-6.5 449.81-9.65 449.81-13.65L449.81-13.65Q449.81-17.7 451.61-20.85 453.41-24 456.56-25.8 459.71-27.6 463.71-27.6L463.71-27.6Q467.71-27.6 470.84-25.8 473.96-24 475.76-20.85 477.56-17.7 477.61-13.65L477.61-13.65Q477.61-9.65 475.79-6.5 473.96-3.35 470.84-1.55 467.71 0.25 463.71 0.25ZM463.71-3.25L463.71-3.25Q466.61-3.25 468.91-4.6 471.21-5.95 472.51-8.3 473.81-10.65 473.81-13.65L473.81-13.65Q473.81-16.65 472.51-19.03 471.21-21.4 468.91-22.75 466.61-24.1 463.71-24.1L463.71-24.1Q460.81-24.1 458.51-22.75 456.21-21.4 454.89-19.03 453.56-16.65 453.56-13.65L453.56-13.65Q453.56-10.65 454.89-8.3 456.21-5.95 458.51-4.6 460.81-3.25 463.71-3.25ZM497.01 0.3L497.01 0.3Q493.46 0.3 490.66-1.18 487.86-2.65 486.23-5.5 484.61-8.35 484.61-12.45L484.61-12.45 484.61-25.45Q484.61-26.25 485.16-26.8 485.71-27.35 486.51-27.35L486.51-27.35Q487.36-27.35 487.91-26.8 488.46-26.25 488.46-25.45L488.46-25.45 488.46-12.45Q488.46-9.35 489.63-7.35 490.81-5.35 492.83-4.35 494.86-3.35 497.41-3.35L497.41-3.35Q499.86-3.35 501.83-4.3 503.81-5.25 504.96-6.9 506.11-8.55 506.11-10.65L506.11-10.65 508.86-10.65Q508.71-7.5 507.13-5.03 505.56-2.55 502.91-1.13 500.26 0.3 497.01 0.3ZM508.01 0L508.01 0Q507.16 0 506.63-0.53 506.11-1.05 506.11-1.95L506.11-1.95 506.11-25.45Q506.11-26.3 506.63-26.83 507.16-27.35 508.01-27.35L508.01-27.35Q508.86-27.35 509.41-26.83 509.96-26.3 509.96-25.45L509.96-25.45 509.96-1.95Q509.96-1.05 509.41-0.53 508.86 0 508.01 0ZM545.8 0.25L545.8 0.25Q541.85 0.25 538.78-1.58 535.7-3.4 533.93-6.55 532.15-9.7 532.15-13.65L532.15-13.65Q532.15-17.65 533.85-20.8 535.55-23.95 538.5-25.78 541.45-27.6 545.3-27.6L545.3-27.6Q548.35-27.6 550.93-26.4 553.5-25.2 555.45-22.8L555.45-22.8Q556-22.2 555.85-21.53 555.7-20.85 555-20.35L555-20.35Q554.45-19.95 553.78-20.08 553.1-20.2 552.6-20.8L552.6-20.8Q549.7-24.1 545.3-24.1L545.3-24.1Q542.5-24.1 540.38-22.75 538.25-21.4 537.08-19.05 535.9-16.7 535.9-13.65L535.9-13.65Q535.9-10.65 537.15-8.3 538.4-5.95 540.65-4.6 542.9-3.25 545.8-3.25L545.8-3.25Q547.75-3.25 549.38-3.78 551-4.3 552.25-5.4L552.25-5.4Q552.85-5.9 553.5-5.95 554.15-6 554.7-5.55L554.7-5.55Q555.3-5 555.38-4.3 555.45-3.6 554.9-3.1L554.9-3.1Q551.25 0.25 545.8 0.25ZM575.45 0.25L575.45 0.25Q571.6 0.25 568.55-1.58 565.5-3.4 563.72-6.55 561.95-9.7 561.95-13.65L561.95-13.65Q561.95-17.65 563.77-20.8 565.6-23.95 568.75-25.78 571.9-27.6 575.85-27.6L575.85-27.6Q579.8-27.6 582.92-25.78 586.05-23.95 587.87-20.8 589.7-17.65 589.75-13.65L589.75-13.65 588.2-12.45Q588.2-8.85 586.52-5.98 584.85-3.1 581.97-1.43 579.1 0.25 575.45 0.25ZM575.85-3.25L575.85-3.25Q578.75-3.25 581.02-4.6 583.3-5.95 584.62-8.33 585.95-10.7 585.95-13.65L585.95-13.65Q585.95-16.65 584.62-19 583.3-21.35 581.02-22.73 578.75-24.1 575.85-24.1L575.85-24.1Q573-24.1 570.7-22.73 568.4-21.35 567.05-19 565.7-16.65 565.7-13.65L565.7-13.65Q565.7-10.7 567.05-8.33 568.4-5.95 570.7-4.6 573-3.25 575.85-3.25ZM587.8 0L587.8 0Q586.95 0 586.4-0.53 585.85-1.05 585.85-1.9L585.85-1.9 585.85-10.45 586.8-14.4 589.75-13.65 589.75-1.9Q589.75-1.05 589.2-0.53 588.65 0 587.8 0ZM620.7 0L620.7 0Q619.85 0 619.3-0.55 618.75-1.1 618.75-1.9L618.75-1.9 618.75-14.9Q618.75-18 617.57-20 616.4-22 614.37-23 612.35-24 609.8-24L609.8-24Q607.35-24 605.37-23.05 603.4-22.1 602.25-20.45 601.1-18.8 601.1-16.7L601.1-16.7 598.35-16.7Q598.45-19.85 600.05-22.33 601.65-24.8 604.3-26.23 606.95-27.65 610.2-27.65L610.2-27.65Q613.75-27.65 616.55-26.18 619.35-24.7 620.97-21.85 622.6-19 622.6-14.9L622.6-14.9 622.6-1.9Q622.6-1.1 622.05-0.55 621.5 0 620.7 0ZM599.2 0L599.2 0Q598.3 0 597.77-0.53 597.25-1.05 597.25-1.9L597.25-1.9 597.25-25.4Q597.25-26.3 597.77-26.83 598.3-27.35 599.2-27.35L599.2-27.35Q600.05-27.35 600.57-26.83 601.1-26.3 601.1-25.4L601.1-25.4 601.1-1.9Q601.1-1.05 600.57-0.53 600.05 0 599.2 0ZM659.59 0.25L659.59 0.25Q655.69 0.25 652.57-1.55 649.44-3.35 647.62-6.48 645.79-9.6 645.74-13.5L645.74-13.5 645.74-37.1Q645.74-38 646.27-38.53 646.79-39.05 647.69-39.05L647.69-39.05Q648.54-39.05 649.07-38.53 649.59-38 649.59-37.1L649.59-37.1 649.59-22.4Q651.24-24.75 653.97-26.18 656.69-27.6 660.04-27.6L660.04-27.6Q663.89-27.6 666.94-25.78 669.99-23.95 671.77-20.8 673.54-17.65 673.54-13.7L673.54-13.7Q673.54-9.7 671.72-6.55 669.89-3.4 666.74-1.58 663.59 0.25 659.59 0.25ZM659.59-3.25L659.59-3.25Q662.49-3.25 664.79-4.63 667.09-6 668.42-8.35 669.74-10.7 669.74-13.7L669.74-13.7Q669.74-16.65 668.42-19.03 667.09-21.4 664.79-22.75 662.49-24.1 659.59-24.1L659.59-24.1Q656.74-24.1 654.44-22.75 652.14-21.4 650.84-19.03 649.54-16.65 649.54-13.7L649.54-13.7Q649.54-10.7 650.84-8.35 652.14-6 654.44-4.63 656.74-3.25 659.59-3.25ZM692.99 0.3L692.99 0.3Q689.44 0.3 686.64-1.18 683.84-2.65 682.21-5.5 680.59-8.35 680.59-12.45L680.59-12.45 680.59-25.45Q680.59-26.25 681.14-26.8 681.69-27.35 682.49-27.35L682.49-27.35Q683.34-27.35 683.89-26.8 684.44-26.25 684.44-25.45L684.44-25.45 684.44-12.45Q684.44-9.35 685.61-7.35 686.79-5.35 688.81-4.35 690.84-3.35 693.39-3.35L693.39-3.35Q695.84-3.35 697.81-4.3 699.79-5.25 700.94-6.9 702.09-8.55 702.09-10.65L702.09-10.65 704.84-10.65Q704.69-7.5 703.11-5.03 701.54-2.55 698.89-1.13 696.24 0.3 692.99 0.3ZM703.99 0L703.99 0Q703.14 0 702.61-0.53 702.09-1.05 702.09-1.95L702.09-1.95 702.09-25.45Q702.09-26.3 702.61-26.83 703.14-27.35 703.99-27.35L703.99-27.35Q704.84-27.35 705.39-26.83 705.94-26.3 705.94-25.45L705.94-25.45 705.94-1.95Q705.94-1.05 705.39-0.53 704.84 0 703.99 0ZM719.64 11.9L719.64 11.9Q719.24 11.9 718.74 11.7L718.74 11.7Q717.04 10.95 717.79 9.3L717.79 9.3 733.94-26.3Q734.69-27.9 736.34-27.2L736.34-27.2Q738.04-26.5 737.29-24.85L737.29-24.85 721.09 10.75Q720.59 11.9 719.64 11.9ZM725.19-0.85L725.19-0.85Q724.44-0.5 723.79-0.73 723.14-0.95 722.74-1.7L722.74-1.7 711.59-24.8Q711.24-25.55 711.49-26.2 711.74-26.85 712.49-27.2L712.49-27.2Q713.24-27.55 713.89-27.33 714.54-27.1 714.89-26.35L714.89-26.35 725.84-3.25Q726.24-2.5 726.09-1.85 725.94-1.2 725.19-0.85ZM769.03 0.25L769.03 0.25Q765.18 0.25 762.13-1.58 759.08-3.4 757.31-6.55 755.53-9.7 755.53-13.65L755.53-13.65Q755.53-17.65 757.36-20.8 759.18-23.95 762.33-25.78 765.48-27.6 769.43-27.6L769.43-27.6Q773.38-27.6 776.51-25.78 779.63-23.95 781.46-20.8 783.28-17.65 783.33-13.65L783.33-13.65 781.78-12.45Q781.78-8.85 780.11-5.98 778.43-3.1 775.56-1.43 772.68 0.25 769.03 0.25ZM769.43-3.25L769.43-3.25Q772.33-3.25 774.61-4.6 776.88-5.95 778.21-8.33 779.53-10.7 779.53-13.65L779.53-13.65Q779.53-16.65 778.21-19 776.88-21.35 774.61-22.73 772.33-24.1 769.43-24.1L769.43-24.1Q766.58-24.1 764.28-22.73 761.98-21.35 760.63-19 759.28-16.65 759.28-13.65L759.28-13.65Q759.28-10.7 760.63-8.33 761.98-5.95 764.28-4.6 766.58-3.25 769.43-3.25ZM781.38 0L781.38 0Q780.53 0 779.98-0.53 779.43-1.05 779.43-1.9L779.43-1.9 779.43-10.45 780.38-14.4 783.33-13.65 783.33-1.9Q783.33-1.05 782.78-0.53 782.23 0 781.38 0ZM814.28 0L814.28 0Q813.43 0 812.88-0.55 812.33-1.1 812.33-1.9L812.33-1.9 812.33-14.9Q812.33-18 811.15-20 809.98-22 807.95-23 805.93-24 803.38-24L803.38-24Q800.93-24 798.95-23.05 796.98-22.1 795.83-20.45 794.68-18.8 794.68-16.7L794.68-16.7 791.93-16.7Q792.03-19.85 793.63-22.33 795.23-24.8 797.88-26.23 800.53-27.65 803.78-27.65L803.78-27.65Q807.33-27.65 810.13-26.18 812.93-24.7 814.55-21.85 816.18-19 816.18-14.9L816.18-14.9 816.18-1.9Q816.18-1.1 815.63-0.55 815.08 0 814.28 0ZM792.78 0L792.78 0Q791.88 0 791.35-0.53 790.83-1.05 790.83-1.9L790.83-1.9 790.83-25.4Q790.83-26.3 791.35-26.83 791.88-27.35 792.78-27.35L792.78-27.35Q793.63-27.35 794.15-26.83 794.68-26.3 794.68-25.4L794.68-25.4 794.68-1.9Q794.68-1.05 794.15-0.53 793.63 0 792.78 0ZM837.13 0.25L837.13 0.25Q833.18 0.25 830.03-1.58 826.88-3.4 825.05-6.55 823.23-9.7 823.23-13.7L823.23-13.7Q823.23-17.65 825-20.8 826.78-23.95 829.83-25.78 832.88-27.6 836.73-27.6L836.73-27.6Q840.08-27.6 842.78-26.18 845.48-24.75 847.13-22.4L847.13-22.4 847.13-37.1Q847.13-38 847.68-38.53 848.23-39.05 849.08-39.05L849.08-39.05Q849.93-39.05 850.48-38.53 851.03-38 851.03-37.1L851.03-37.1 851.03-13.5Q850.93-9.6 849.1-6.48 847.28-3.35 844.15-1.55 841.03 0.25 837.13 0.25ZM837.13-3.25L837.13-3.25Q840.03-3.25 842.3-4.63 844.58-6 845.9-8.35 847.23-10.7 847.23-13.7L847.23-13.7Q847.23-16.65 845.9-19.03 844.58-21.4 842.3-22.75 840.03-24.1 837.13-24.1L837.13-24.1Q834.28-24.1 831.98-22.75 829.68-21.4 828.33-19.03 826.98-16.65 826.98-13.7L826.98-13.7Q826.98-10.7 828.33-8.35 829.68-6 831.98-4.63 834.28-3.25 837.13-3.25ZM886.57 0.3L886.57 0.3Q883.02 0.3 880.22-1.18 877.42-2.65 875.8-5.5 874.17-8.35 874.17-12.45L874.17-12.45 874.17-25.45Q874.17-26.25 874.72-26.8 875.27-27.35 876.07-27.35L876.07-27.35Q876.92-27.35 877.47-26.8 878.02-26.25 878.02-25.45L878.02-25.45 878.02-12.45Q878.02-9.35 879.2-7.35 880.37-5.35 882.4-4.35 884.42-3.35 886.97-3.35L886.97-3.35Q889.42-3.35 891.4-4.3 893.37-5.25 894.52-6.9 895.67-8.55 895.67-10.65L895.67-10.65 898.42-10.65Q898.27-7.5 896.7-5.03 895.12-2.55 892.47-1.13 889.82 0.3 886.57 0.3ZM897.57 0L897.57 0Q896.72 0 896.2-0.53 895.67-1.05 895.67-1.95L895.67-1.95 895.67-25.45Q895.67-26.3 896.2-26.83 896.72-27.35 897.57-27.35L897.57-27.35Q898.42-27.35 898.97-26.83 899.52-26.3 899.52-25.45L899.52-25.45 899.52-1.95Q899.52-1.05 898.97-0.53 898.42 0 897.57 0ZM910.47 11.7L910.47 11.7Q909.57 11.7 909.04 11.18 908.52 10.65 908.52 9.75L908.52 9.75 908.52-13.85Q908.57-17.75 910.39-20.88 912.22-24 915.34-25.8 918.47-27.6 922.37-27.6L922.37-27.6Q926.37-27.6 929.52-25.78 932.67-23.95 934.49-20.8 936.32-17.65 936.32-13.65L936.32-13.65Q936.32-9.7 934.54-6.55 932.77-3.4 929.72-1.58 926.67 0.25 922.82 0.25L922.82 0.25Q919.47 0.25 916.74-1.18 914.02-2.6 912.37-4.95L912.37-4.95 912.37 9.75Q912.37 10.65 911.84 11.18 911.32 11.7 910.47 11.7ZM922.37-3.25L922.37-3.25Q925.27-3.25 927.57-4.6 929.87-5.95 931.19-8.33 932.52-10.7 932.52-13.65L932.52-13.65Q932.52-16.65 931.19-19 929.87-21.35 927.57-22.73 925.27-24.1 922.37-24.1L922.37-24.1Q919.52-24.1 917.22-22.73 914.92-21.35 913.62-19 912.32-16.65 912.32-13.65L912.32-13.65Q912.32-10.7 913.62-8.33 914.92-5.95 917.22-4.6 919.52-3.25 922.37-3.25ZM950.42 0L949.77 0Q947.77 0 946.19-1.1 944.62-2.2 943.74-4.15 942.87-6.1 942.87-8.65L942.87-8.65 942.87-37.15Q942.87-38 943.39-38.53 943.92-39.05 944.77-39.05L944.77-39.05Q945.62-39.05 946.14-38.53 946.67-38 946.67-37.15L946.67-37.15 946.67-8.65Q946.67-6.5 947.54-5.15 948.42-3.8 949.77-3.8L949.77-3.8 951.02-3.8Q951.77-3.8 952.22-3.28 952.67-2.75 952.67-1.9L952.67-1.9Q952.67-1.05 952.04-0.53 951.42 0 950.42 0L950.42 0ZM968.91 0.25L968.91 0.25Q964.91 0.25 961.76-1.55 958.61-3.35 956.81-6.5 955.01-9.65 955.01-13.65L955.01-13.65Q955.01-17.7 956.81-20.85 958.61-24 961.76-25.8 964.91-27.6 968.91-27.6L968.91-27.6Q972.91-27.6 976.04-25.8 979.16-24 980.96-20.85 982.76-17.7 982.81-13.65L982.81-13.65Q982.81-9.65 980.99-6.5 979.16-3.35 976.04-1.55 972.91 0.25 968.91 0.25ZM968.91-3.25L968.91-3.25Q971.81-3.25 974.11-4.6 976.41-5.95 977.71-8.3 979.01-10.65 979.01-13.65L979.01-13.65Q979.01-16.65 977.71-19.03 976.41-21.4 974.11-22.75 971.81-24.1 968.91-24.1L968.91-24.1Q966.01-24.1 963.71-22.75 961.41-21.4 960.09-19.03 958.76-16.65 958.76-13.65L958.76-13.65Q958.76-10.65 960.09-8.3 961.41-5.95 963.71-4.6 966.01-3.25 968.91-3.25ZM1002.36 0.25L1002.36 0.25Q998.51 0.25 995.46-1.58 992.41-3.4 990.64-6.55 988.86-9.7 988.86-13.65L988.86-13.65Q988.86-17.65 990.69-20.8 992.51-23.95 995.66-25.78 998.81-27.6 1002.76-27.6L1002.76-27.6Q1006.71-27.6 1009.84-25.78 1012.96-23.95 1014.79-20.8 1016.61-17.65 1016.66-13.65L1016.66-13.65 1015.11-12.45Q1015.11-8.85 1013.44-5.98 1011.76-3.1 1008.89-1.43 1006.01 0.25 1002.36 0.25ZM1002.76-3.25L1002.76-3.25Q1005.66-3.25 1007.94-4.6 1010.21-5.95 1011.54-8.33 1012.86-10.7 1012.86-13.65L1012.86-13.65Q1012.86-16.65 1011.54-19 1010.21-21.35 1007.94-22.73 1005.66-24.1 1002.76-24.1L1002.76-24.1Q999.91-24.1 997.61-22.73 995.31-21.35 993.96-19 992.61-16.65 992.61-13.65L992.61-13.65Q992.61-10.7 993.96-8.33 995.31-5.95 997.61-4.6 999.91-3.25 1002.76-3.25ZM1014.71 0L1014.71 0Q1013.86 0 1013.31-0.53 1012.76-1.05 1012.76-1.9L1012.76-1.9 1012.76-10.45 1013.71-14.4 1016.66-13.65 1016.66-1.9Q1016.66-1.05 1016.11-0.53 1015.56 0 1014.71 0ZM1036.61 0.25L1036.61 0.25Q1032.66 0.25 1029.51-1.58 1026.36-3.4 1024.53-6.55 1022.71-9.7 1022.71-13.7L1022.71-13.7Q1022.71-17.65 1024.48-20.8 1026.26-23.95 1029.31-25.78 1032.36-27.6 1036.21-27.6L1036.21-27.6Q1039.56-27.6 1042.26-26.18 1044.96-24.75 1046.61-22.4L1046.61-22.4 1046.61-37.1Q1046.61-38 1047.16-38.53 1047.71-39.05 1048.56-39.05L1048.56-39.05Q1049.41-39.05 1049.96-38.53 1050.51-38 1050.51-37.1L1050.51-37.1 1050.51-13.5Q1050.41-9.6 1048.58-6.48 1046.76-3.35 1043.63-1.55 1040.51 0.25 1036.61 0.25ZM1036.61-3.25L1036.61-3.25Q1039.51-3.25 1041.78-4.63 1044.06-6 1045.38-8.35 1046.71-10.7 1046.71-13.7L1046.71-13.7Q1046.71-16.65 1045.38-19.03 1044.06-21.4 1041.78-22.75 1039.51-24.1 1036.61-24.1L1036.61-24.1Q1033.76-24.1 1031.46-22.75 1029.16-21.4 1027.81-19.03 1026.46-16.65 1026.46-13.7L1026.46-13.7Q1026.46-10.7 1027.81-8.35 1029.16-6 1031.46-4.63 1033.76-3.25 1036.61-3.25ZM1068.66-8.85L1068.66-8.85Q1067.81-8.85 1067.26-9.4 1066.71-9.95 1066.71-10.85L1066.71-10.85Q1066.71-12.85 1067.68-15.15 1068.66-17.45 1070.41-19.1L1070.41-19.1Q1071.96-20.55 1073.36-21.9 1074.76-23.25 1075.63-24.9 1076.51-26.55 1076.51-29.05L1076.51-29.05Q1076.51-31 1075.56-32.63 1074.61-34.25 1072.88-35.2 1071.16-36.15 1068.86-36.15L1068.86-36.15Q1066.36-36.15 1064.56-35.13 1062.76-34.1 1061.78-32.3 1060.81-30.5 1060.81-28.15L1060.81-28.15Q1060.81-27.3 1060.28-26.78 1059.76-26.25 1058.91-26.25L1058.91-26.25Q1058.06-26.25 1057.51-26.78 1056.96-27.3 1056.96-28.15L1056.96-28.15Q1056.96-31.6 1058.46-34.23 1059.96-36.85 1062.63-38.35 1065.31-39.85 1068.86-39.85L1068.86-39.85Q1072.16-39.85 1074.76-38.43 1077.36-37 1078.86-34.52 1080.36-32.05 1080.36-28.85L1080.36-28.85Q1080.36-26.05 1079.36-24.1 1078.36-22.15 1076.73-20.53 1075.11-18.9 1073.16-17.1L1073.16-17.1Q1071.61-15.7 1071.11-13.95 1070.61-12.2 1070.61-10.85L1070.61-10.85Q1070.61-9.95 1070.06-9.4 1069.51-8.85 1068.66-8.85ZM1068.66 0L1068.66 0Q1067.41 0 1066.58-0.85 1065.76-1.7 1065.76-2.9L1065.76-2.9Q1065.76-4.15 1066.61-5 1067.46-5.85 1068.66-5.85L1068.66-5.85Q1069.86-5.85 1070.73-5 1071.61-4.15 1071.61-2.9L1071.61-2.9Q1071.61-1.7 1070.73-0.85 1069.86 0 1068.66 0Z" opacity="1" transform="matrix(1,0,0,1,0,0)" fill="#374151" class="slogan-text-1" data-fill-palette-color="secondary" id="text-1"></path></svg></g></svg></g></svg></g></svg></g><g><svg viewBox="0 0 73.10753025347238 83.92445911675959" height="83.92445911675959" width="73.10753025347238"><g><svg xmlns="http://www.w3.org/2000/svg" xmlns:xlink="http://www.w3.org/1999/xlink" version="1.1" x="0" y="0" viewBox="10.100000381469727 5.199999809265137 78.4000015258789 90" enable-background="new 0 0 100 100" xml:space="preserve" height="83.92445911675959" width="73.10753025347238" class="icon-icon-0" data-fill-palette-color="accent" id="icon-0"><polygon fill-rule="evenodd" clip-rule="evenodd" fill="#b10dc9" points="88.5,28.2 68.4,59.9 68.5,22.3 " data-fill-palette-color="accent"></polygon><polygon fill-rule="evenodd" clip-rule="evenodd" fill="#b10dc9" points="49.8,5.2 67.2,38.5 34.7,19.6 " data-fill-palette-color="accent"></polygon><polygon fill-rule="evenodd" clip-rule="evenodd" fill="#b10dc9" points="67.8,38.3 67.8,22.3 60.8,24.5 " data-fill-palette-color="accent"></polygon><polygon fill-rule="evenodd" clip-rule="evenodd" fill="#b10dc9" points="88.2,73.2 50.6,71.7 83.2,52.9 " data-fill-palette-color="accent"></polygon><polygon fill-rule="evenodd" clip-rule="evenodd" fill="#b10dc9" points="69.1,60.3 82.8,52.3 77.4,47.4 " data-fill-palette-color="accent"></polygon><polygon fill-rule="evenodd" clip-rule="evenodd" fill="#b10dc9" points="48.7,95.2 31.5,61.9 63.9,80.9 " data-fill-palette-color="accent"></polygon><polygon fill-rule="evenodd" clip-rule="evenodd" fill="#b10dc9" points="50.5,72.2 64.2,80.2 65.8,73.1 " data-fill-palette-color="accent"></polygon><polygon fill-rule="evenodd" clip-rule="evenodd" fill="#b10dc9" points="10.1,72 30.5,40.4 30.1,78 " data-fill-palette-color="accent"></polygon><polygon fill-rule="evenodd" clip-rule="evenodd" fill="#b10dc9" points="30.9,62.1 30.8,78 37.8,75.8 " data-fill-palette-color="accent"></polygon><polygon fill-rule="evenodd" clip-rule="evenodd" fill="#b10dc9" points="11,27 48.5,28.9 15.8,47.3 " data-fill-palette-color="accent"></polygon><polygon fill-rule="evenodd" clip-rule="evenodd" fill="#b10dc9" points="30,40.1 16.1,47.9 21.5,52.9 " data-fill-palette-color="accent"></polygon><polygon fill-rule="evenodd" clip-rule="evenodd" fill="#b10dc9" points="48.2,28.3 34.5,20.2 32.9,27.4 " data-fill-palette-color="accent"></polygon></svg></g></svg></g></svg></g><defs></defs></svg><rect width="395.52" height="67.57837658065975" fill="none" stroke="none" visibility="hidden"></rect></g></svg></g></svg>