<?xml version="1.0" standalone="no"?>
<!DOCTYPE svg PUBLIC "-//W3C//DTD SVG 20010904//EN"
 "http://www.w3.org/TR/2001/REC-SVG-20010904/DTD/svg10.dtd">
<svg version="1.0" xmlns="http://www.w3.org/2000/svg"
 width="900.000000pt" height="505.000000pt" viewBox="0 0 900.000000 505.000000"
 preserveAspectRatio="xMidYMid meet">

<g transform="translate(0.000000,505.000000) scale(0.100000,-0.100000)"
fill="#FFD700" stroke="none">
<path d="M3583 4988 c-143 -180 -256 -431 -270 -601 -3 -37 -9 -70 -13 -72 -4
-2 -10 28 -13 68 -4 40 -18 117 -32 172 -27 110 -85 275 -96 275 -14 0 -80
-99 -108 -162 -59 -130 -76 -225 -76 -419 l0 -177 -31 99 c-38 121 -108 263
-176 360 -60 85 -56 88 -88 -73 -88 -428 2 -846 213 -999 22 -16 45 -29 52
-29 7 0 23 35 36 78 22 69 24 95 24 262 l0 185 23 -68 c25 -78 59 -147 70
-147 17 2 86 101 122 175 39 81 69 193 71 262 1 38 1 38 9 8 5 -16 13 -59 20
-95 6 -36 14 -67 16 -69 6 -6 83 47 131 92 113 105 198 244 234 387 36 143 18
340 -46 497 l-22 55 -50 -64z m-596 -950 c-3 -8 -6 -5 -6 6 -1 11 2 17 5 13 3
-3 4 -12 1 -19z m10 -60 c-3 -7 -5 -2 -5 12 0 14 2 19 5 13 2 -7 2 -19 0 -25z"/>
<path d="M5329 5013 c-58 -152 -73 -244 -66 -387 9 -178 69 -319 195 -457 62
-67 160 -149 180 -149 5 0 15 33 22 73 20 124 23 128 32 52 15 -129 72 -270
143 -356 21 -24 41 -46 46 -47 13 -5 67 116 90 202 10 39 17 58 14 41 -13 -76
-17 -325 -6 -387 16 -91 41 -168 56 -168 16 0 83 49 117 86 74 79 144 248 167
403 27 172 7 477 -42 641 l-13 45 -47 -66 c-72 -102 -133 -225 -176 -355 l-39
-119 5 122 c11 241 -40 453 -144 596 -19 26 -38 47 -42 47 -11 0 -68 -161 -96
-269 -14 -55 -28 -134 -32 -175 -6 -74 -23 -97 -23 -31 0 95 -55 268 -132 416
-50 97 -171 269 -189 269 -5 0 -14 -12 -20 -27z m668 -975 c-3 -8 -6 -5 -6 6
-1 11 2 17 5 13 3 -3 4 -12 1 -19z"/>
<path d="M3872 4320 c-158 -29 -302 -118 -387 -240 -15 -21 -44 -50 -65 -64
-170 -112 -339 -351 -390 -551 -24 -93 -25 -142 -5 -254 l14 -83 -60 -108
c-148 -265 -230 -542 -245 -836 l-7 -124 70 0 70 0 6 75 c8 85 30 139 69 169
l28 20 31 -30 c28 -26 31 -27 40 -12 9 16 13 17 38 4 15 -8 33 -22 40 -30 8
-9 17 -16 21 -16 4 0 10 53 13 118 3 74 13 144 27 191 24 84 84 221 97 221 12
0 69 -95 89 -150 12 -30 18 -77 18 -140 1 -112 -17 -161 -85 -235 -35 -38
-121 -95 -143 -95 -3 0 -6 17 -8 37 -2 31 -10 42 -46 67 -37 27 -44 28 -57 15
-18 -18 -50 -109 -59 -166 l-6 -43 90 0 c78 0 90 2 88 16 -2 12 9 20 37 28
128 39 231 166 255 313 18 111 -22 248 -106 365 l-35 50 27 36 c115 154 126
162 435 267 l187 64 62 -20 c125 -39 261 -18 389 60 l63 39 -38 20 c-58 30
-149 45 -217 37 -64 -7 -178 -44 -231 -76 -18 -10 -111 -45 -207 -77 -96 -33
-207 -73 -247 -91 -41 -18 -80 -30 -87 -27 -7 2 -67 66 -134 140 l-121 136
-46 -62 c-25 -35 -51 -65 -56 -67 -18 -6 -2 205 20 279 59 200 147 333 291
439 l68 51 100 -8 c281 -21 593 41 781 156 72 43 132 89 132 101 0 9 -145 54
-250 76 -91 20 -285 28 -358 15z m233 -130 c0 -18 -6 -26 -23 -28 -13 -2 -25
3 -28 12 -10 26 4 48 28 44 17 -2 23 -10 23 -28z m-295 -39 c7 -15 6 -23 -6
-35 -19 -19 -26 -20 -42 -4 -16 16 -15 45 1 51 24 10 36 7 47 -12z m-515
-1185 c-83 -88 -199 -410 -228 -631 l-4 -30 -2 33 c-3 85 85 384 155 523 31
63 101 155 111 146 2 -2 -13 -21 -32 -41z m-135 -89 c-74 -118 -158 -350 -179
-492 -6 -43 -9 -50 -10 -25 -2 74 69 311 131 435 38 76 81 145 90 145 4 0 -10
-28 -32 -63z"/>
<path d="M4809 4315 c-80 -13 -234 -52 -294 -75 l-28 -11 55 -42 c200 -155
552 -243 866 -216 l104 9 69 -51 c95 -70 157 -143 211 -247 73 -140 108 -270
108 -403 0 -37 -4 -71 -10 -74 -5 -3 -10 -2 -10 2 0 5 -20 37 -45 71 l-46 62
-122 -139 c-67 -77 -128 -140 -135 -140 -8 -1 -44 12 -82 29 -37 16 -146 56
-241 89 -96 32 -208 75 -250 95 -108 52 -215 72 -302 57 -37 -6 -86 -20 -108
-32 l-41 -20 49 -31 c94 -61 152 -80 248 -85 72 -4 103 -1 154 15 l63 21 190
-65 c308 -106 316 -111 431 -265 l27 -36 -49 -74 c-79 -118 -111 -244 -91
-348 28 -147 129 -269 253 -306 30 -9 41 -17 39 -29 -3 -14 14 -16 139 -16
l142 0 -7 72 c-7 81 -34 151 -64 167 -17 9 -26 7 -48 -12 l-27 -24 17 -44 c19
-49 37 -151 26 -144 -4 3 -10 24 -12 48 -6 48 -51 157 -66 157 -5 0 -28 -14
-50 -30 -36 -26 -42 -35 -42 -66 0 -32 -2 -35 -22 -29 -67 21 -155 105 -191
183 -28 60 -30 212 -3 282 20 55 77 150 89 150 13 0 73 -137 97 -221 13 -46
23 -119 27 -191 3 -65 9 -118 12 -118 3 1 21 14 40 30 34 29 34 29 27 92 -20
194 -140 515 -227 609 -16 17 -28 33 -26 36 10 9 80 -83 113 -148 65 -130 153
-424 154 -519 0 -19 7 -44 15 -54 15 -19 15 -19 40 4 30 28 31 58 10 161 -31
146 -121 369 -186 460 -11 16 -16 29 -11 29 13 0 88 -137 127 -231 46 -114 85
-251 92 -326 5 -52 10 -65 30 -79 35 -22 63 -93 70 -174 l6 -70 70 0 70 0 -7
121 c-17 308 -115 628 -270 883 l-36 59 15 86 c20 113 19 163 -4 252 -51 200
-190 401 -373 541 -43 32 -78 63 -78 68 0 19 -108 126 -164 162 -129 83 -332
115 -527 83z m119 -118 c6 -28 -16 -49 -39 -36 -19 10 -25 39 -12 53 13 13 48
1 51 -17z m293 -43 c9 -11 10 -20 3 -32 -15 -23 -29 -25 -48 -7 -12 12 -13 21
-6 36 13 23 33 25 51 3z"/>
<path d="M3541 3925 c-30 -9 -76 -27 -103 -42 -51 -28 -138 -99 -138 -112 0
-5 53 -11 118 -14 72 -4 145 -14 191 -27 l74 -21 74 31 c41 17 77 29 79 27 3
-2 -17 -12 -43 -22 -165 -62 -442 -243 -557 -363 -33 -36 -46 -13 108 -195 55
-64 103 -117 108 -117 25 0 70 37 137 112 170 191 338 282 543 295 89 6 90 6
129 47 21 23 39 44 39 48 0 4 22 19 50 33 39 20 64 25 120 25 51 0 82 6 110
20 22 11 52 19 67 19 26 -1 25 -2 -7 -9 -19 -4 -48 -15 -65 -24 -20 -10 -54
-16 -99 -16 -87 0 -137 -23 -191 -86 l-39 -47 115 8 c139 9 107 10 329 -5 215
-13 289 -27 390 -69 103 -44 183 -104 295 -223 91 -97 126 -127 151 -128 5 0
55 53 110 117 154 183 141 159 108 195 -44 45 -189 159 -279 218 -112 73 -248
137 -384 181 -64 21 -111 38 -104 38 19 1 170 -48 249 -80 l70 -29 80 20 c43
12 130 24 192 27 61 3 112 9 112 14 0 16 -98 91 -155 118 -88 42 -154 54 -254
48 -101 -6 -205 -38 -273 -84 l-48 -32 -73 15 c-140 30 -725 29 -756 -1 -20
-21 89 -60 203 -72 27 -3 64 -15 83 -29 41 -28 61 -31 212 -38 86 -4 122 -10
145 -24 22 -13 62 -21 129 -26 53 -3 108 -11 123 -16 14 -6 40 -10 58 -10 21
0 40 -8 52 -21 l19 -21 -30 15 c-38 19 -138 38 -240 44 -48 3 -90 12 -105 21
-28 18 -37 19 -205 30 -118 8 -149 16 -175 46 -7 10 -29 16 -54 16 -24 0 -62
6 -87 14 -24 8 -61 17 -81 21 -21 3 -44 15 -52 27 -12 17 -22 20 -50 15 -29
-5 -45 0 -84 27 -109 73 -315 106 -441 71z m466 -111 c-3 -3 -12 -4 -19 -1 -8
3 -5 6 6 6 11 1 17 -2 13 -5z m-52 -14 c-11 -5 -27 -9 -35 -9 -9 0 -8 4 5 9
11 5 27 9 35 9 9 0 8 -4 -5 -9z"/>
<path d="M2290 3909 c0 -46 42 -223 76 -320 48 -137 102 -249 169 -350 l55
-82 -98 95 c-144 139 -334 256 -460 283 -39 8 -40 16 9 -120 87 -240 315 -534
523 -673 74 -50 209 -102 224 -88 13 13 -26 192 -58 269 -18 43 -57 113 -87
155 l-55 77 74 -76 c80 -81 148 -121 207 -123 l36 -1 6 55 c10 86 -7 219 -42
314 -75 208 -280 435 -514 568 -60 34 -65 35 -65 17z m380 -524 c10 -12 10
-18 0 -30 -27 -32 -71 -8 -56 30 3 8 14 15 24 15 11 0 25 -7 32 -15z"/>
<path d="M6623 3891 c-231 -132 -437 -360 -512 -566 -37 -102 -54 -228 -44
-310 l9 -60 42 2 c59 3 121 41 205 127 l70 71 -42 -55 c-86 -115 -142 -253
-156 -383 -9 -78 -7 -79 80 -48 209 74 476 350 616 637 40 82 92 224 85 231
-7 7 -89 -18 -155 -48 -103 -47 -229 -137 -333 -238 l-98 -94 54 81 c71 106
129 229 177 373 37 113 73 277 67 303 -2 8 -22 1 -65 -23z m-258 -521 c0 -30
-35 -40 -55 -15 -10 12 -10 18 0 30 20 25 55 15 55 -15z"/>
<path d="M3340 3691 c-82 -25 -133 -68 -169 -138 -35 -70 -33 -72 70 -72 l91
0 67 53 c37 28 97 70 134 91 37 22 67 43 67 46 0 21 -205 37 -260 20z"/>
<path d="M5428 3688 c-27 -5 -48 -13 -48 -17 0 -3 32 -26 71 -50 39 -24 100
-66 135 -92 l63 -49 91 0 c65 0 90 3 90 13 0 23 -47 112 -71 134 -65 60 -214
87 -331 61z"/>
<path d="M4095 3463 c-52 -7 -149 -34 -162 -45 -7 -6 -13 -22 -13 -37 0 -14
-11 -52 -24 -83 -13 -32 -22 -58 -19 -58 3 0 35 16 73 35 75 40 166 117 193
164 20 35 22 34 -48 24z"/>
<path d="M4836 3440 c29 -50 115 -123 192 -163 38 -20 72 -37 75 -37 3 0 -6
26 -19 58 -13 31 -24 66 -24 78 0 11 -6 28 -12 36 -13 17 -95 41 -182 53 l-48
7 18 -32z"/>
<path d="M3795 3353 c-22 -14 -63 -46 -92 -70 -48 -40 -52 -47 -46 -76 3 -18
7 -34 9 -36 6 -7 105 72 129 103 28 37 59 106 47 106 -4 0 -25 -12 -47 -27z"/>
<path d="M5145 3344 c8 -19 24 -49 36 -65 22 -31 114 -109 129 -109 4 0 10 15
13 33 5 28 1 37 -36 71 -44 40 -136 106 -150 106 -4 0 -1 -16 8 -36z"/>
<path d="M3848 3143 c-36 -6 -35 -20 2 -65 66 -80 197 -112 349 -84 100 18
116 29 81 57 -96 76 -280 115 -432 92z"/>
<path d="M4920 3140 c-81 -14 -124 -29 -180 -62 -84 -51 -79 -63 35 -83 116
-21 198 -15 272 21 50 24 113 85 113 110 0 22 -142 31 -240 14z"/>
<path d="M1914 3094 c10 -50 63 -178 109 -258 92 -164 232 -314 373 -402 79
-49 209 -98 283 -107 l43 -5 -6 41 c-24 146 -108 290 -255 437 -172 172 -351
283 -514 320 l-39 8 6 -34z"/>
<path d="M6954 3096 c-149 -55 -289 -150 -435 -296 -146 -146 -233 -294 -254
-432 l-7 -46 43 5 c24 3 81 17 126 33 210 70 416 262 544 505 43 80 99 221 99
247 0 15 -54 7 -116 -16z"/>
<path d="M3571 3051 c-19 -12 -2 -40 54 -89 55 -48 121 -67 205 -59 58 7 148
32 164 47 13 12 -80 67 -153 90 -66 21 -242 28 -270 11z"/>
<path d="M5150 3044 c-60 -16 -166 -74 -163 -89 2 -15 97 -45 162 -52 85 -8
151 11 206 59 56 49 73 77 54 89 -22 14 -199 9 -259 -7z"/>
<path d="M4279 2953 c-11 -3 -19 -20 -23 -51 -4 -26 -9 -64 -12 -84 l-6 -37
45 2 c45 2 47 4 112 90 l66 87 -83 -1 c-46 -1 -90 -3 -99 -6z"/>
<path d="M4532 2943 c7 -10 37 -50 66 -90 53 -70 54 -71 98 -70 45 0 46 0 40
31 -3 17 -8 54 -12 82 -6 48 -9 52 -36 58 -17 3 -62 6 -100 6 -64 0 -68 -1
-56 -17z"/>
<path d="M4173 2938 l-42 -9 5 -47 c3 -26 7 -63 9 -83 5 -35 4 -37 -43 -54
-72 -27 -147 -72 -220 -133 -37 -30 -57 -45 -46 -33 l21 23 -31 48 c-17 27
-36 47 -42 45 -7 -2 -26 37 -46 93 -33 94 -35 97 -66 100 -18 2 -32 0 -32 -3
0 -4 25 -55 56 -114 30 -58 48 -97 39 -86 -9 11 -38 61 -66 112 -49 92 -50 92
-82 86 -17 -3 -35 -8 -38 -12 -4 -3 29 -57 73 -119 44 -63 78 -116 75 -118 -2
-2 -39 46 -82 108 -43 62 -79 115 -81 117 -7 8 -54 -19 -54 -31 0 -7 36 -55
80 -106 94 -110 116 -145 33 -52 -32 35 -74 82 -95 104 l-36 40 -12 -42 -11
-43 71 -89 70 -89 0 -86 c0 -59 -3 -84 -11 -80 -15 10 -93 -21 -114 -45 -17
-18 -17 -21 -1 -46 29 -43 127 -72 139 -41 3 6 6 -2 6 -20 1 -17 3 -37 6 -45
4 -10 -7 -12 -50 -10 -30 2 -77 -1 -104 -7 -61 -13 -141 -49 -141 -63 0 -22
72 -77 127 -99 45 -17 79 -22 151 -22 50 0 92 -3 92 -7 0 -3 6 -14 13 -24 11
-16 17 -13 60 33 l48 50 -36 38 -35 38 -40 -42 c-25 -27 -42 -38 -47 -30 -3 6
-1 13 6 15 31 10 80 64 74 80 -4 9 6 1 22 -18 173 -209 254 -272 424 -330 l44
-15 44 -115 c25 -63 45 -116 46 -117 2 -1 38 -5 81 -9 l78 -7 -44 59 c-69 91
-171 241 -216 319 -38 66 -44 71 -100 93 -145 56 -258 159 -292 269 -11 36
-19 88 -19 117 l2 51 8 -63 c23 -181 105 -279 304 -361 87 -37 119 -35 188 9
49 31 77 80 85 147 5 48 12 55 65 72 20 7 37 16 37 19 0 4 -21 16 -48 26 -26
10 -58 29 -72 42 -14 12 -37 26 -52 29 -36 9 -55 32 -40 47 9 9 22 2 55 -30
23 -23 46 -42 50 -42 13 0 7 51 -9 86 -22 46 -88 84 -159 91 -30 3 -55 8 -55
10 0 3 39 62 86 130 l86 126 -83 -5 c-74 -4 -80 -3 -49 7 37 12 38 15 53 133
6 47 5 47 -70 30z m-586 -640 c-2 -13 -4 -5 -4 17 -1 22 1 32 4 23 2 -10 2
-28 0 -40z m42 -188 c0 -9 -4 -8 -9 5 -5 11 -9 27 -9 35 0 9 4 8 9 -5 5 -11 9
-27 9 -35z"/>
<path d="M4734 2928 c3 -13 8 -45 11 -73 3 -27 8 -58 11 -67 5 -16 -2 -18 -46
-18 l-51 0 86 -125 c47 -69 85 -127 85 -129 0 -2 -26 -6 -57 -10 -72 -8 -130
-41 -154 -86 -18 -33 -26 -90 -13 -90 4 0 27 18 51 41 32 29 48 38 56 30 14
-14 -6 -37 -41 -46 -15 -3 -38 -17 -52 -29 -14 -13 -46 -32 -72 -42 -27 -10
-48 -22 -48 -26 0 -3 17 -12 38 -19 53 -17 59 -23 65 -81 11 -89 70 -152 164
-172 24 -6 50 1 108 25 199 82 281 180 304 361 l8 63 2 -51 c2 -83 -32 -174
-87 -235 -55 -62 -140 -119 -223 -151 -58 -22 -62 -26 -111 -108 -54 -91 -197
-300 -232 -339 l-21 -24 80 7 c44 4 80 8 82 9 1 1 21 54 46 117 l44 115 59 21
c148 52 220 105 347 253 50 58 88 99 85 89 -5 -11 6 -27 32 -51 21 -20 41 -33
44 -30 3 4 6 2 6 -4 0 -23 -13 -18 -51 20 l-40 41 -37 -37 -37 -37 52 -52 52
-52 12 28 c12 27 15 28 65 21 107 -13 259 37 300 100 16 24 16 27 -2 40 -39
28 -129 50 -207 50 -73 0 -78 1 -73 20 3 11 6 31 7 45 0 14 3 19 6 13 12 -32
110 -2 139 42 18 27 18 28 -10 51 -15 13 -47 29 -72 35 l-44 11 0 79 0 79 70
90 c70 90 71 91 60 130 -6 22 -14 40 -18 40 -4 -1 -24 -22 -44 -48 -46 -58
-142 -162 -133 -145 3 7 42 54 85 105 44 51 80 98 80 104 0 12 -71 49 -112 58
-25 6 -30 1 -69 -71 -58 -108 -81 -145 -85 -140 -2 2 21 48 51 103 30 54 55
103 55 107 0 5 -14 7 -32 5 -31 -3 -33 -6 -66 -100 -20 -56 -39 -95 -46 -93
-6 2 -25 -18 -43 -44 l-31 -48 21 -24 c20 -20 20 -21 2 -9 -11 8 -38 30 -60
50 -54 49 -128 94 -198 120 l-57 22 5 51 c3 29 8 66 11 84 4 31 3 31 -46 42
-69 15 -71 14 -66 -11z m630 -187 c-42 -61 -79 -109 -81 -107 -3 2 30 54 72
116 43 61 79 109 82 106 2 -2 -30 -54 -73 -115z m-559 29 c13 -6 15 -9 5 -9
-8 0 -22 4 -30 9 -18 12 -2 12 25 0z m592 -472 c-2 -13 -4 -3 -4 22 0 25 2 35
4 23 2 -13 2 -33 0 -45z"/>
<path d="M4031 2895 c-51 -24 -53 -26 -39 -48 11 -17 54 -89 63 -104 2 -5 76
24 77 31 0 3 -3 38 -7 76 -8 81 -12 83 -94 45z"/>
<path d="M4856 2874 c-13 -96 -10 -108 31 -121 21 -6 38 -11 39 -10 1 1 17 30
37 65 l37 63 -53 24 c-75 35 -83 33 -91 -21z"/>
<path d="M3924 2838 c-42 -31 -124 -111 -124 -121 0 -4 15 -30 33 -56 l33 -49
34 28 c32 26 34 30 19 47 -22 25 -62 93 -55 93 3 0 22 -24 42 -54 l36 -54 46
31 c26 17 48 31 50 32 7 5 -64 125 -74 125 -6 0 -24 -10 -40 -22z"/>
<path d="M4972 2799 c-18 -34 -32 -62 -30 -64 2 -1 24 -16 49 -33 l47 -31 36
54 c20 30 39 55 42 55 6 0 0 -11 -39 -69 l-30 -44 34 -28 33 -27 33 49 c18 26
33 52 33 56 0 20 -144 143 -167 143 -4 0 -23 -28 -41 -61z"/>
<path d="M1839 2648 c5 -13 14 -62 20 -109 35 -267 156 -438 441 -625 52 -34
107 -67 121 -74 19 -9 39 -40 77 -118 108 -228 246 -427 407 -587 108 -108
185 -165 222 -165 15 0 84 50 197 142 l173 141 -62 75 c-144 172 -249 424
-260 627 l-4 80 -224 3 -224 2 13 -97 c39 -286 148 -603 277 -803 20 -30 34
-57 31 -59 -7 -8 -99 86 -186 189 -107 127 -206 278 -282 430 -59 118 -63 130
-65 200 -5 188 -87 373 -230 518 -126 128 -272 213 -423 246 -25 6 -27 4 -19
-16z"/>
<path d="M7080 2653 c-223 -57 -467 -274 -556 -493 -32 -80 -51 -165 -60 -270
-6 -77 -12 -95 -65 -201 -74 -146 -174 -296 -277 -419 -87 -103 -179 -197
-186 -189 -3 2 11 29 30 59 86 134 171 333 219 513 29 105 65 303 65 353 l0
34 -222 0 -223 0 -2 -83 c-5 -195 -111 -454 -258 -629 l-63 -75 174 -142 c115
-93 182 -141 197 -141 30 0 82 35 174 117 156 139 325 373 442 609 l64 129 85
50 c94 55 239 164 288 216 127 135 185 257 214 446 11 70 18 128 17 129 -1 1
-27 -5 -57 -13z"/>
<path d="M2943 2295 c-29 -21 -54 -88 -60 -167 l-6 -68 46 0 45 0 7 43 c4 23
16 68 26 100 16 47 17 62 8 74 -23 27 -45 33 -66 18z"/>
<path d="M1635 2089 c-56 -9 -135 -37 -135 -48 0 -4 25 -37 56 -75 156 -189
487 -338 805 -362 48 -4 103 -4 123 0 l37 7 -33 61 c-61 115 -215 256 -358
328 -69 35 -177 69 -269 85 -91 16 -148 17 -226 4z m264 -157 c12 -22 -3 -42
-31 -42 -21 0 -33 22 -24 45 8 21 43 19 55 -3z m284 -124 c7 -21 -12 -48 -34
-48 -22 0 -34 22 -25 45 7 18 53 20 59 3z"/>
<path d="M7111 2050 c-200 -42 -415 -168 -526 -308 -45 -56 -95 -141 -95 -162
0 -6 30 -10 73 -11 l72 0 -67 -24 c-136 -48 -255 -131 -294 -207 -14 -27 -13
-27 23 -38 71 -20 238 -32 348 -25 233 13 399 50 539 119 86 43 186 116 186
137 0 6 -16 17 -37 25 -68 29 -187 46 -330 47 -78 1 -141 2 -140 3 1 1 37 11
80 23 89 24 236 91 322 145 90 58 235 204 235 237 0 4 -21 15 -47 24 -56 20
-271 29 -342 15z m47 -156 c4 -29 -23 -51 -43 -34 -16 13 -20 42 -8 54 14 14
48 1 51 -20z m-283 -134 c0 -18 -6 -26 -23 -28 -13 -2 -25 3 -28 12 -10 26 4
48 28 44 17 -2 23 -10 23 -28z"/>
<path d="M3774 1998 c-72 -79 -70 -72 -38 -117 16 -22 34 -40 39 -40 6 0 30
27 53 61 l44 61 -34 34 -34 33 -30 -32z"/>
<path d="M5141 1996 l-33 -34 44 -60 c24 -34 48 -61 53 -61 6 0 23 17 38 40
l29 40 -47 54 c-26 30 -48 55 -49 55 -1 0 -17 -15 -35 -34z"/>
<path d="M3828 1886 l-46 -64 37 -36 36 -36 48 66 48 67 -32 33 c-18 19 -35
34 -39 34 -3 0 -26 -29 -52 -64z"/>
<path d="M5061 1916 l-34 -35 30 -38 c43 -54 70 -99 56 -90 -7 4 -31 34 -54
67 l-42 60 -31 -22 c-17 -12 -32 -22 -32 -22 -1 -1 4 -39 11 -86 7 -47 9 -89
5 -93 -4 -5 -10 20 -14 55 -4 35 -10 75 -13 90 -5 27 -5 27 -39 10 -32 -15
-34 -19 -35 -66 0 -28 -4 -71 -9 -96 -7 -35 -8 -25 -5 48 l4 93 -32 -6 c-18
-4 -37 -12 -43 -19 -12 -12 -87 -206 -82 -212 7 -6 116 26 188 55 98 40 171
86 246 154 l63 58 -45 62 c-25 34 -49 63 -53 65 -4 1 -22 -13 -40 -32z"/>
<path d="M3916 1816 c-25 -36 -46 -68 -46 -73 0 -10 110 -84 165 -111 69 -34
245 -89 245 -77 0 14 -75 201 -84 211 -6 7 -25 15 -43 19 l-32 6 4 -93 c3 -73
2 -83 -5 -48 -5 25 -9 68 -9 96 -1 47 -3 51 -35 67 l-34 16 -6 -32 c-3 -18 -8
-56 -12 -84 -4 -29 -10 -51 -14 -48 -4 2 -1 41 5 87 7 46 12 83 11 84 0 0 -15
10 -33 22 l-31 22 -46 -64z"/>
<path d="M3390 1800 c0 -66 64 -257 109 -327 67 -103 179 -184 287 -207 22 -5
77 -55 209 -192 l178 -186 -7 -238 c-7 -262 -10 -250 56 -250 20 0 37 -8 50
-25 25 -32 86 -35 113 -5 26 29 22 80 -9 105 l-24 20 24 18 c33 25 33 78 0
104 l-24 19 24 21 c16 14 24 32 24 53 0 21 -8 39 -24 53 l-24 21 24 19 c34 26
33 79 -2 106 -34 26 -64 27 -92 1 -43 -40 -62 -29 -195 113 -193 204 -227 247
-227 284 0 48 -34 147 -70 202 -41 65 -151 168 -227 214 -77 47 -173 90 -173
77z m205 -208 c8 -20 -19 -47 -39 -39 -26 10 -32 38 -12 53 21 15 42 9 51 -14z
m129 -145 c9 -15 7 -21 -8 -32 -35 -26 -74 13 -44 43 16 16 38 12 52 -11z
m550 -642 c3 -8 13 -15 22 -15 13 0 11 -5 -9 -20 -14 -11 -27 -20 -29 -20 -1
0 -3 16 -4 35 -1 36 9 46 20 20z m7 -184 c-19 -19 -19 -18 -23 15 -5 43 -1 47
23 23 19 -19 19 -19 0 -38z m17 -127 c2 -1 -6 -12 -17 -23 l-21 -21 0 36 c0
33 2 35 18 23 9 -7 19 -14 20 -15z"/>
<path d="M5522 1779 c-216 -98 -383 -285 -399 -445 -7 -69 -17 -82 -226 -306
-133 -143 -158 -159 -193 -123 -27 26 -63 29 -92 8 -43 -32 -42 -105 0 -119
22 -6 21 -7 -5 -26 -37 -27 -39 -90 -2 -114 l25 -16 -25 -20 c-34 -27 -35 -80
-1 -105 l24 -18 -25 -21 c-19 -15 -26 -30 -26 -53 0 -69 83 -101 129 -48 16
19 33 27 65 29 l44 3 -4 242 -4 242 178 185 c134 139 186 187 209 192 17 3 63
21 102 40 88 41 169 125 214 219 31 64 83 248 78 271 -2 8 -25 2 -66 -17z
m-72 -193 c0 -23 -30 -41 -48 -30 -23 15 -25 29 -7 48 12 12 21 13 36 6 10 -6
19 -17 19 -24z m-140 -135 c7 -15 6 -24 -6 -36 -19 -18 -33 -16 -48 7 -7 12
-6 21 3 32 18 22 38 20 51 -3z m-586 -666 c-1 -20 -3 -37 -5 -38 -2 -2 -14 7
-26 20 -17 17 -19 23 -7 23 8 0 17 7 20 15 10 26 19 16 18 -20z m-4 -151 c0
-32 -1 -34 -16 -20 -8 9 -21 16 -27 16 -9 0 30 39 41 40 1 0 2 -16 2 -36z m0
-149 l0 -35 -21 21 c-20 20 -20 21 -2 34 24 19 23 20 23 -20z"/>
<path d="M3864 1574 c10 -122 48 -260 96 -353 41 -78 106 -151 134 -151 24 0
50 97 50 185 0 101 -29 193 -87 270 -43 59 -145 135 -180 135 -19 0 -19 -4
-13 -86z"/>
<path d="M5024 1621 c-160 -107 -231 -320 -168 -503 10 -30 22 -48 32 -48 8 0
35 20 59 45 76 80 133 218 158 385 20 132 20 160 -4 160 -10 0 -45 -18 -77
-39z"/>
<path d="M1840 1599 c-91 -10 -215 -42 -226 -60 -16 -26 110 -118 232 -169
173 -72 474 -112 684 -91 61 6 129 16 150 22 38 12 39 13 25 38 -24 48 -123
131 -197 166 -94 45 -234 80 -372 94 -122 12 -173 12 -296 0z"/>
<path d="M4310 1474 c-48 -52 -102 -163 -119 -242 -24 -115 -7 -266 35 -313
16 -18 18 -17 46 18 73 92 120 240 121 378 1 86 -16 190 -33 200 -4 3 -27 -16
-50 -41z"/>
<path d="M4599 1458 c-18 -72 -15 -219 5 -298 20 -75 75 -192 110 -234 l24
-29 17 27 c46 70 59 208 30 321 -31 118 -119 265 -160 265 -7 0 -19 -23 -26
-52z"/>
<path d="M3336 1110 c-93 -76 -173 -143 -178 -148 -20 -20 177 -205 317 -299
116 -78 291 -163 385 -187 46 -12 -57 72 -165 135 -193 112 -301 181 -340 215
-51 45 -31 35 61 -31 40 -29 126 -83 191 -120 65 -37 137 -81 161 -97 40 -28
45 -29 61 -14 10 9 23 16 29 16 49 0 -45 61 -223 144 -128 61 -265 141 -265
157 0 5 22 -7 48 -26 27 -19 129 -75 228 -124 160 -80 179 -87 190 -73 10 14
35 18 133 20 l121 4 0 78 c0 42 3 91 6 107 6 30 5 30 -45 37 -28 4 -81 23
-118 42 -38 19 -84 39 -103 43 -21 5 4 6 63 3 l99 -5 -21 42 c-33 64 -87 117
-149 148 -50 25 -70 28 -174 32 -104 3 -117 5 -121 22 -3 10 -9 19 -14 18 -4
0 -84 -63 -177 -139z m368 -64 c21 -14 34 -26 29 -26 -16 0 -85 54 -123 96
l-35 39 45 -42 c25 -22 63 -53 84 -67z"/>
<path d="M5453 1232 c-4 -18 -15 -20 -121 -23 -104 -4 -124 -7 -174 -32 -62
-31 -116 -84 -149 -148 l-21 -42 99 5 c59 3 84 2 63 -3 -19 -4 -65 -24 -103
-43 -37 -19 -90 -38 -118 -42 l-51 -7 6 -45 c3 -25 6 -73 6 -108 l0 -62 121
-4 c98 -2 123 -6 133 -19 10 -15 30 -8 189 71 97 48 199 104 227 124 27 20 50
32 50 27 0 -16 -137 -96 -265 -157 -183 -86 -272 -144 -220 -144 7 0 18 -8 24
-17 9 -17 11 -17 38 0 15 10 72 43 126 75 54 31 144 87 200 124 152 101 155
103 112 65 -39 -35 -145 -103 -340 -216 -108 -63 -211 -147 -165 -135 108 28
289 119 415 209 97 69 241 198 274 244 l21 29 -177 143 c-97 79 -181 146 -186
148 -4 2 -11 -6 -14 -17z m-89 -123 c-35 -37 -103 -89 -117 -89 -6 0 9 13 34
29 24 16 57 43 73 60 17 17 32 31 35 31 2 0 -8 -14 -25 -31z"/>
<path d="M2365 1234 c-86 -8 -193 -26 -270 -46 -100 -25 -235 -76 -235 -89 0
-15 170 -92 280 -127 256 -82 538 -94 728 -31 35 12 75 31 89 44 l26 22 -22
36 c-46 75 -143 136 -266 167 -73 19 -252 32 -330 24z"/>
<path d="M6388 1230 c-174 -22 -309 -90 -369 -186 -25 -40 -18 -54 40 -83 84
-43 168 -56 346 -55 194 1 300 19 476 80 113 39 239 99 239 113 0 13 -137 65
-235 89 -158 40 -372 58 -497 42z"/>
<path d="M4107 773 c-4 -71 -7 -176 -7 -235 0 -74 -4 -108 -11 -108 -8 0 -10
21 -7 69 l5 69 -51 6 c-100 12 -162 7 -187 -13 l-24 -20 42 -42 c38 -39 50
-44 145 -65 57 -13 110 -24 119 -24 14 0 17 30 22 236 4 130 5 240 1 245 -3 5
-13 9 -23 9 -16 0 -19 -14 -24 -127z"/>
<path d="M4832 891 c-10 -6 -11 -56 -6 -244 l7 -237 24 0 c23 0 23 2 23 103 0
188 -12 387 -24 387 -6 0 -17 -4 -24 -9z"/>
<path d="M3175 745 c-212 -33 -418 -115 -624 -248 l-94 -61 54 -18 c119 -41
248 -60 399 -60 203 0 248 9 347 71 45 28 130 74 188 103 58 29 105 55 105 58
0 3 -21 18 -47 35 -26 16 -77 53 -113 82 -73 59 -78 60 -215 38z m-90 -195 c0
-18 -6 -26 -23 -28 -13 -2 -25 3 -28 12 -10 26 4 48 28 44 17 -2 23 -10 23
-28z"/>
<path d="M5590 708 c-36 -29 -87 -67 -113 -83 -26 -17 -47 -32 -47 -35 0 -3
47 -29 105 -58 58 -29 143 -75 188 -103 99 -62 144 -71 347 -71 150 0 279 19
399 60 l54 18 -97 63 c-222 144 -474 236 -701 256 l-70 6 -65 -53z m355 -158
c0 -18 -6 -26 -23 -28 -13 -2 -25 3 -28 12 -10 26 4 48 28 44 17 -2 23 -10 23
-28z"/>
<path d="M3851 654 l-22 -16 33 -23 c26 -17 54 -23 131 -29 l97 -6 0 45 0 45
-108 0 c-83 0 -113 -4 -131 -16z"/>
<path d="M4890 624 l0 -45 98 7 c76 5 104 12 130 29 l33 23 -22 16 c-18 12
-48 16 -131 16 l-108 0 0 -46z"/>
<path d="M3485 536 c-49 -23 -142 -73 -205 -111 -97 -57 -135 -88 -241 -194
-119 -119 -189 -202 -189 -224 0 -18 382 -1 493 23 260 55 496 170 659 320
l62 57 -94 22 c-107 26 -260 81 -335 120 -27 14 -52 27 -55 28 -3 2 -45 -17
-95 -41z"/>
<path d="M4934 573 l-42 -4 2 -74 c0 -42 5 -75 11 -75 6 0 45 9 89 19 67 16
85 25 120 60 l41 42 -24 20 c-23 19 -79 23 -197 12z"/>
<path d="M5320 538 c-81 -41 -248 -98 -345 -118 l-60 -12 64 -60 c165 -151
395 -262 659 -318 113 -25 492 -41 492 -22 0 19 -114 154 -206 244 -49 47
-129 112 -179 144 -87 57 -331 186 -344 182 -3 0 -40 -18 -81 -40z"/>
</g>
</svg>
